<?xml version="1.0" encoding="UTF-8"?>
<svg width="300pt" height="115pt" version="1.0" viewBox="0 0 300 115" xmlns="http://www.w3.org/2000/svg">
<rect transform="scale(.8)" x="5.1993" y="6.4881" width="362.91" height="131.54" rx=".31943" ry=".26737" fill="#ffde00"/>
<path d="m4 4c-2.75 2.75-3.15 102.9-0.45 106.8l1.55 2.2h143.5c97.05 0 144.15-0.35 145.45-1.05 1.9-1 1.95-2.65 1.95-53.95v-52.9l-2.2-1.55c-3.95-2.75-287.05-2.3-289.8 0.45zm286.8 3.55 2.2 1.55v48.15c0 43.35-0.15 48.25-1.65 49.9-1.95 2.2-279.4 2.95-283.4 0.8-1.9-1-1.95-2.6-1.95-50.5v-49.5l2.25-0.9c4.45-1.8 279.95-1.3 282.55 0.5z"/>
<g transform="matrix(1.0212 0 0 1 -.18423 0)">
<path d="m24.772 81.75c-1.95 2.05-6.35 7-9.8 11l-6.3 7.25 5.85-0.05h5.85l6.5-7.65c3.6-4.15 7.75-9.1 9.3-10.95l2.85-3.35h-5.35c-4.95 0-5.7 0.3-8.9 3.75z"/>
<path d="m42.182 81.75c-1.95 2.05-6.35 7-9.8 11l-6.3 7.25 5.85-0.05h5.85l6.5-7.65c3.6-4.15 7.75-9.1 9.3-10.95l2.85-3.35h-5.35c-4.95 0-5.7 0.3-8.9 3.75z"/>
<path d="m59.592 81.75c-1.95 2.05-6.35 7-9.8 11l-6.3 7.25 5.85-0.05h5.85l6.5-7.65c3.6-4.15 7.75-9.1 9.3-10.95l2.85-3.35h-5.35c-4.95 0-5.7 0.3-8.9 3.75z"/>
<path d="m77.002 81.75c-1.95 2.05-6.35 7-9.8 11l-6.3 7.25 5.85-0.05h5.85l6.5-7.65c3.6-4.15 7.75-9.1 9.3-10.95l2.85-3.35h-5.35c-4.95 0-5.7 0.3-8.9 3.75z"/>
<path d="m94.413 81.75c-1.95 2.05-6.35 7-9.8 11l-6.3 7.25 5.85-0.05h5.85l6.5-7.65c3.6-4.15 7.75-9.1 9.3-10.95l2.85-3.35h-5.35c-4.95 0-5.7 0.3-8.9 3.75z"/>
<path d="m111.82 81.75c-1.95 2.05-6.35 7-9.8 11l-6.3 7.25 5.85-0.05h5.85l6.5-7.65c3.6-4.15 7.75-9.1 9.3-10.95l2.85-3.35h-5.35c-4.95 0-5.7 0.3-8.9 3.75z"/>
<path d="m146.64 81.75c-1.95 2.05-6.35 7-9.8 11l-6.3 7.25 5.85-0.05h5.85l6.5-7.65c3.6-4.15 7.75-9.1 9.3-10.95l2.85-3.35h-5.35c-4.95 0-5.7 0.3-8.9 3.75z"/>
<path d="m181.46 81.75c-1.95 2.05-6.35 7-9.8 11l-6.3 7.25 5.85-0.05h5.85l6.5-7.65c3.6-4.15 7.75-9.1 9.3-10.95l2.85-3.35h-5.35c-4.95 0-5.7 0.3-8.9 3.75z"/>
<path d="m216.28 81.75c-1.95 2.05-6.35 7-9.8 11l-6.3 7.25 5.85-0.05h5.85l6.5-7.65c3.6-4.15 7.75-9.1 9.3-10.95l2.85-3.35h-5.35c-4.95 0-5.7 0.3-8.9 3.75z"/>
<path d="m233.69 81.75c-1.95 2.05-6.35 7-9.8 11l-6.3 7.25 5.85-0.05h5.85l6.5-7.65c3.6-4.15 7.75-9.1 9.3-10.95l2.85-3.35h-5.35c-4.95 0-5.7 0.3-8.9 3.75z"/>
<path d="m251.11 81.75c-1.95 2.05-6.35 7-9.8 11l-6.3 7.25 5.85-0.05h5.85l6.5-7.65c3.6-4.15 7.75-9.1 9.3-10.95l2.85-3.35h-5.35c-4.95 0-5.7 0.3-8.9 3.75z"/>
<path d="m268.52 81.75c-1.95 2.05-6.35 7-9.8 11l-6.3 7.25 5.85-0.05h5.85l6.5-7.65c3.6-4.15 7.75-9.1 9.3-10.95l2.85-3.35h-5.35c-4.95 0-5.7 0.3-8.9 3.75z"/>
<path d="m129.23 81.75c-1.95 2.05-6.35 7-9.8 11l-6.3 7.25 5.85-0.05h5.85l6.5-7.65c3.6-4.15 7.75-9.1 9.3-10.95l2.85-3.35h-5.35c-4.95 0-5.7 0.3-8.9 3.75z"/>
<path d="m164.05 81.75c-1.95 2.05-6.35 7-9.8 11l-6.3 7.25 5.85-0.05h5.85l6.5-7.65c3.6-4.15 7.75-9.1 9.3-10.95l2.85-3.35h-5.35c-4.95 0-5.7 0.3-8.9 3.75z"/>
<path d="m198.87 81.75c-1.95 2.05-6.35 7-9.8 11l-6.3 7.25 5.85-0.05h5.85l6.5-7.65c3.6-4.15 7.75-9.1 9.3-10.95l2.85-3.35h-5.35c-4.95 0-5.7 0.3-8.9 3.75z"/>
<path d="m24.772 81.75c-1.95 2.05-6.35 7-9.8 11l-6.3 7.25 5.85-0.05h5.85l6.5-7.65c3.6-4.15 7.75-9.1 9.3-10.95l2.85-3.35h-5.35c-4.95 0-5.7 0.3-8.9 3.75z"/>
<path d="m42.182 81.75c-1.95 2.05-6.35 7-9.8 11l-6.3 7.25 5.85-0.05h5.85l6.5-7.65c3.6-4.15 7.75-9.1 9.3-10.95l2.85-3.35h-5.35c-4.95 0-5.7 0.3-8.9 3.75z"/>
<path d="m59.592 81.75c-1.95 2.05-6.35 7-9.8 11l-6.3 7.25 5.85-0.05h5.85l6.5-7.65c3.6-4.15 7.75-9.1 9.3-10.95l2.85-3.35h-5.35c-4.95 0-5.7 0.3-8.9 3.75z"/>
<path d="m77.002 81.75c-1.95 2.05-6.35 7-9.8 11l-6.3 7.25 5.85-0.05h5.85l6.5-7.65c3.6-4.15 7.75-9.1 9.3-10.95l2.85-3.35h-5.35c-4.95 0-5.7 0.3-8.9 3.75z"/>
<path d="m94.413 81.75c-1.95 2.05-6.35 7-9.8 11l-6.3 7.25 5.85-0.05h5.85l6.5-7.65c3.6-4.15 7.75-9.1 9.3-10.95l2.85-3.35h-5.35c-4.95 0-5.7 0.3-8.9 3.75z"/>
<path d="m111.82 81.75c-1.95 2.05-6.35 7-9.8 11l-6.3 7.25 5.85-0.05h5.85l6.5-7.65c3.6-4.15 7.75-9.1 9.3-10.95l2.85-3.35h-5.35c-4.95 0-5.7 0.3-8.9 3.75z"/>
<path d="m146.64 81.75c-1.95 2.05-6.35 7-9.8 11l-6.3 7.25 5.85-0.05h5.85l6.5-7.65c3.6-4.15 7.75-9.1 9.3-10.95l2.85-3.35h-5.35c-4.95 0-5.7 0.3-8.9 3.75z"/>
<path d="m181.46 81.75c-1.95 2.05-6.35 7-9.8 11l-6.3 7.25 5.85-0.05h5.85l6.5-7.65c3.6-4.15 7.75-9.1 9.3-10.95l2.85-3.35h-5.35c-4.95 0-5.7 0.3-8.9 3.75z"/>
<path d="m216.28 81.75c-1.95 2.05-6.35 7-9.8 11l-6.3 7.25 5.85-0.05h5.85l6.5-7.65c3.6-4.15 7.75-9.1 9.3-10.95l2.85-3.35h-5.35c-4.95 0-5.7 0.3-8.9 3.75z"/>
<path d="m233.69 81.75c-1.95 2.05-6.35 7-9.8 11l-6.3 7.25 5.85-0.05h5.85l6.5-7.65c3.6-4.15 7.75-9.1 9.3-10.95l2.85-3.35h-5.35c-4.95 0-5.7 0.3-8.9 3.75z"/>
<path d="m251.11 81.75c-1.95 2.05-6.35 7-9.8 11l-6.3 7.25 5.85-0.05h5.85l6.5-7.65c3.6-4.15 7.75-9.1 9.3-10.95l2.85-3.35h-5.35c-4.95 0-5.7 0.3-8.9 3.75z"/>
<path d="m268.52 81.75c-1.95 2.05-6.35 7-9.8 11l-6.3 7.25 5.85-0.05h5.85l6.5-7.65c3.6-4.15 7.75-9.1 9.3-10.95l2.85-3.35h-5.35c-4.95 0-5.7 0.3-8.9 3.75z"/>
<path d="m129.23 81.75c-1.95 2.05-6.35 7-9.8 11l-6.3 7.25 5.85-0.05h5.85l6.5-7.65c3.6-4.15 7.75-9.1 9.3-10.95l2.85-3.35h-5.35c-4.95 0-5.7 0.3-8.9 3.75z"/>
<path d="m164.05 81.75c-1.95 2.05-6.35 7-9.8 11l-6.3 7.25 5.85-0.05h5.85l6.5-7.65c3.6-4.15 7.75-9.1 9.3-10.95l2.85-3.35h-5.35c-4.95 0-5.7 0.3-8.9 3.75z"/>
<path d="m198.87 81.75c-1.95 2.05-6.35 7-9.8 11l-6.3 7.25 5.85-0.05h5.85l6.5-7.65c3.6-4.15 7.75-9.1 9.3-10.95l2.85-3.35h-5.35c-4.95 0-5.7 0.3-8.9 3.75z"/>
</g>
<g transform="matrix(1.0212 0 0 1 -.18423 -62.808)">
<path d="m24.772 81.75c-1.95 2.05-6.35 7-9.8 11l-6.3 7.25 5.85-0.05h5.85l6.5-7.65c3.6-4.15 7.75-9.1 9.3-10.95l2.85-3.35h-5.35c-4.95 0-5.7 0.3-8.9 3.75z"/>
<path d="m42.182 81.75c-1.95 2.05-6.35 7-9.8 11l-6.3 7.25 5.85-0.05h5.85l6.5-7.65c3.6-4.15 7.75-9.1 9.3-10.95l2.85-3.35h-5.35c-4.95 0-5.7 0.3-8.9 3.75z"/>
<path d="m59.592 81.75c-1.95 2.05-6.35 7-9.8 11l-6.3 7.25 5.85-0.05h5.85l6.5-7.65c3.6-4.15 7.75-9.1 9.3-10.95l2.85-3.35h-5.35c-4.95 0-5.7 0.3-8.9 3.75z"/>
<path d="m77.002 81.75c-1.95 2.05-6.35 7-9.8 11l-6.3 7.25 5.85-0.05h5.85l6.5-7.65c3.6-4.15 7.75-9.1 9.3-10.95l2.85-3.35h-5.35c-4.95 0-5.7 0.3-8.9 3.75z"/>
<path d="m94.413 81.75c-1.95 2.05-6.35 7-9.8 11l-6.3 7.25 5.85-0.05h5.85l6.5-7.65c3.6-4.15 7.75-9.1 9.3-10.95l2.85-3.35h-5.35c-4.95 0-5.7 0.3-8.9 3.75z"/>
<path d="m111.82 81.75c-1.95 2.05-6.35 7-9.8 11l-6.3 7.25 5.85-0.05h5.85l6.5-7.65c3.6-4.15 7.75-9.1 9.3-10.95l2.85-3.35h-5.35c-4.95 0-5.7 0.3-8.9 3.75z"/>
<path d="m146.64 81.75c-1.95 2.05-6.35 7-9.8 11l-6.3 7.25 5.85-0.05h5.85l6.5-7.65c3.6-4.15 7.75-9.1 9.3-10.95l2.85-3.35h-5.35c-4.95 0-5.7 0.3-8.9 3.75z"/>
<path d="m181.46 81.75c-1.95 2.05-6.35 7-9.8 11l-6.3 7.25 5.85-0.05h5.85l6.5-7.65c3.6-4.15 7.75-9.1 9.3-10.95l2.85-3.35h-5.35c-4.95 0-5.7 0.3-8.9 3.75z"/>
<path d="m216.28 81.75c-1.95 2.05-6.35 7-9.8 11l-6.3 7.25 5.85-0.05h5.85l6.5-7.65c3.6-4.15 7.75-9.1 9.3-10.95l2.85-3.35h-5.35c-4.95 0-5.7 0.3-8.9 3.75z"/>
<path d="m233.69 81.75c-1.95 2.05-6.35 7-9.8 11l-6.3 7.25 5.85-0.05h5.85l6.5-7.65c3.6-4.15 7.75-9.1 9.3-10.95l2.85-3.35h-5.35c-4.95 0-5.7 0.3-8.9 3.75z"/>
<path d="m251.11 81.75c-1.95 2.05-6.35 7-9.8 11l-6.3 7.25 5.85-0.05h5.85l6.5-7.65c3.6-4.15 7.75-9.1 9.3-10.95l2.85-3.35h-5.35c-4.95 0-5.7 0.3-8.9 3.75z"/>
<path d="m268.52 81.75c-1.95 2.05-6.35 7-9.8 11l-6.3 7.25 5.85-0.05h5.85l6.5-7.65c3.6-4.15 7.75-9.1 9.3-10.95l2.85-3.35h-5.35c-4.95 0-5.7 0.3-8.9 3.75z"/>
<path d="m129.23 81.75c-1.95 2.05-6.35 7-9.8 11l-6.3 7.25 5.85-0.05h5.85l6.5-7.65c3.6-4.15 7.75-9.1 9.3-10.95l2.85-3.35h-5.35c-4.95 0-5.7 0.3-8.9 3.75z"/>
<path d="m164.05 81.75c-1.95 2.05-6.35 7-9.8 11l-6.3 7.25 5.85-0.05h5.85l6.5-7.65c3.6-4.15 7.75-9.1 9.3-10.95l2.85-3.35h-5.35c-4.95 0-5.7 0.3-8.9 3.75z"/>
<path d="m198.87 81.75c-1.95 2.05-6.35 7-9.8 11l-6.3 7.25 5.85-0.05h5.85l6.5-7.65c3.6-4.15 7.75-9.1 9.3-10.95l2.85-3.35h-5.35c-4.95 0-5.7 0.3-8.9 3.75z"/>
<path d="m24.772 81.75c-1.95 2.05-6.35 7-9.8 11l-6.3 7.25 5.85-0.05h5.85l6.5-7.65c3.6-4.15 7.75-9.1 9.3-10.95l2.85-3.35h-5.35c-4.95 0-5.7 0.3-8.9 3.75z"/>
<path d="m42.182 81.75c-1.95 2.05-6.35 7-9.8 11l-6.3 7.25 5.85-0.05h5.85l6.5-7.65c3.6-4.15 7.75-9.1 9.3-10.95l2.85-3.35h-5.35c-4.95 0-5.7 0.3-8.9 3.75z"/>
<path d="m59.592 81.75c-1.95 2.05-6.35 7-9.8 11l-6.3 7.25 5.85-0.05h5.85l6.5-7.65c3.6-4.15 7.75-9.1 9.3-10.95l2.85-3.35h-5.35c-4.95 0-5.7 0.3-8.9 3.75z"/>
<path d="m77.002 81.75c-1.95 2.05-6.35 7-9.8 11l-6.3 7.25 5.85-0.05h5.85l6.5-7.65c3.6-4.15 7.75-9.1 9.3-10.95l2.85-3.35h-5.35c-4.95 0-5.7 0.3-8.9 3.75z"/>
<path d="m94.413 81.75c-1.95 2.05-6.35 7-9.8 11l-6.3 7.25 5.85-0.05h5.85l6.5-7.65c3.6-4.15 7.75-9.1 9.3-10.95l2.85-3.35h-5.35c-4.95 0-5.7 0.3-8.9 3.75z"/>
<path d="m111.82 81.75c-1.95 2.05-6.35 7-9.8 11l-6.3 7.25 5.85-0.05h5.85l6.5-7.65c3.6-4.15 7.75-9.1 9.3-10.95l2.85-3.35h-5.35c-4.95 0-5.7 0.3-8.9 3.75z"/>
<path d="m146.64 81.75c-1.95 2.05-6.35 7-9.8 11l-6.3 7.25 5.85-0.05h5.85l6.5-7.65c3.6-4.15 7.75-9.1 9.3-10.95l2.85-3.35h-5.35c-4.95 0-5.7 0.3-8.9 3.75z"/>
<path d="m181.46 81.75c-1.95 2.05-6.35 7-9.8 11l-6.3 7.25 5.85-0.05h5.85l6.5-7.65c3.6-4.15 7.75-9.1 9.3-10.95l2.85-3.35h-5.35c-4.95 0-5.7 0.3-8.9 3.75z"/>
<path d="m216.28 81.75c-1.95 2.05-6.35 7-9.8 11l-6.3 7.25 5.85-0.05h5.85l6.5-7.65c3.6-4.15 7.75-9.1 9.3-10.95l2.85-3.35h-5.35c-4.95 0-5.7 0.3-8.9 3.75z"/>
<path d="m233.69 81.75c-1.95 2.05-6.35 7-9.8 11l-6.3 7.25 5.85-0.05h5.85l6.5-7.65c3.6-4.15 7.75-9.1 9.3-10.95l2.85-3.35h-5.35c-4.95 0-5.7 0.3-8.9 3.75z"/>
<path d="m251.11 81.75c-1.95 2.05-6.35 7-9.8 11l-6.3 7.25 5.85-0.05h5.85l6.5-7.65c3.6-4.15 7.75-9.1 9.3-10.95l2.85-3.35h-5.35c-4.95 0-5.7 0.3-8.9 3.75z"/>
<path d="m268.52 81.75c-1.95 2.05-6.35 7-9.8 11l-6.3 7.25 5.85-0.05h5.85l6.5-7.65c3.6-4.15 7.75-9.1 9.3-10.95l2.85-3.35h-5.35c-4.95 0-5.7 0.3-8.9 3.75z"/>
<path d="m129.23 81.75c-1.95 2.05-6.35 7-9.8 11l-6.3 7.25 5.85-0.05h5.85l6.5-7.65c3.6-4.15 7.75-9.1 9.3-10.95l2.85-3.35h-5.35c-4.95 0-5.7 0.3-8.9 3.75z"/>
<path d="m164.05 81.75c-1.95 2.05-6.35 7-9.8 11l-6.3 7.25 5.85-0.05h5.85l6.5-7.65c3.6-4.15 7.75-9.1 9.3-10.95l2.85-3.35h-5.35c-4.95 0-5.7 0.3-8.9 3.75z"/>
<path d="m198.87 81.75c-1.95 2.05-6.35 7-9.8 11l-6.3 7.25 5.85-0.05h5.85l6.5-7.65c3.6-4.15 7.75-9.1 9.3-10.95l2.85-3.35h-5.35c-4.95 0-5.7 0.3-8.9 3.75z"/>
</g>
<path d="m11.142 47.355h7.2266c0.24477 2.6e-5 0.40054 0.0495 0.46731 0.14844 0.06675 0.09898 0.10013 0.40367 0.10014 0.91406-9e-6 0.51044-0.16134 0.84898-0.484 1.0156-0.24479 0.12502-0.4089 0.25523-0.49234 0.39063-0.08346 0.13544-0.12518 0.39586-0.12517 0.78125v17.5c-7e-6 0.47917 0.14464 0.86719 0.43393 1.1641 0.28928 0.29688 0.65645 0.44531 1.1015 0.44531 0.41167 3e-6 0.76215-0.16666 1.0514-0.5 0.28928-0.33333 0.43392-0.70312 0.43393-1.1094v-17.5c-1e-5 -0.30206-0.03061-0.513-0.0918-0.63281-0.0612-0.11977-0.21419-0.26821-0.45896-0.44531-0.37831-0.27081-0.56746-0.68748-0.56744-1.25-1e-5 -0.43748 0.05284-0.7005 0.15855-0.78906 0.10569-0.08852 0.25868-0.13279 0.45896-0.13281h3.6049c0.40054 2.6e-5 0.60081 0.18752 0.60082 0.5625v0.75c-1.4e-5 0.33336-0.02226 0.54429-0.06675 0.63281-0.04452 0.08856-0.17247 0.16929-0.38386 0.24219-0.52295 0.16669-0.78442 0.50523-0.78441 1.0156v17.047c-1.4e-5 1.6146-0.49514 2.8932-1.4854 3.8359-0.99026 0.94271-2.3699 1.4141-4.139 1.4141-1.9805-1e-6 -3.4909-0.5-4.5312-1.5-1.0403-1-1.5605-2.4427-1.5605-4.3281v-16.469c-2e-6 -0.43748-0.24478-0.76039-0.73434-0.96875-0.24478-0.10414-0.39221-0.2005-0.44228-0.28906-0.05007-0.08851-0.0751-0.27862-0.0751-0.57031 0-0.60414 0.03894-0.98435 0.11683-1.1406 0.07789-0.15622 0.30041-0.23435 0.66758-0.23438z"/>
<path d="m29.551 58.277v11.031c-4e-6 0.45834 0.27815 0.80209 0.83448 1.0312 0.4673 0.19792 0.70096 0.47917 0.70096 0.84375-6e-6 0.76042-0.01948 1.1823-0.05841 1.2656-0.03895 0.08334-0.20306 0.125-0.49234 0.125h-4.4394c-0.22253 0-0.36161-0.08073-0.41724-0.24219-0.05563-0.16146-0.08344-0.5599-0.08344-1.1953 0-0.29166 0.15021-0.49479 0.45062-0.60938 0.57857-0.23958 0.86786-0.51041 0.86786-0.8125v-18.469c-2e-6 -0.44789-0.0445-0.78383-0.13352-1.0078-0.08902-0.22394-0.28929-0.40883-0.60082-0.55469-0.27816-0.12498-0.46453-0.26039-0.5591-0.40625-0.09458-0.14581-0.14186-0.42185-0.14186-0.82813-1e-6 -0.72914 0.20584-1.0937 0.61751-1.0938h4.6397l5.6077 12.172v-8.9688c-1.1e-5 -0.49998-0.27261-0.85414-0.81779-1.0625-0.32268-0.13539-0.5313-0.28904-0.62586-0.46094-0.09459-0.17185-0.14187-0.50779-0.14186-1.0078-1.1e-5 -0.31247 0.03337-0.50258 0.10014-0.57031 0.06674-0.06768 0.1947-0.10154 0.38386-0.10156h4.6063c0.25589 0.03127 0.38384 0.37502 0.38386 1.0312-1.5e-5 0.38544-0.02505 0.63023-0.07511 0.73438-0.05008 0.10419-0.16413 0.19273-0.34214 0.26562-0.38944 0.14586-0.63422 0.28648-0.73434 0.42188-0.10015 0.13544-0.15022 0.32294-0.15021 0.5625v22.203h-2.8372z"/>
<path d="m42.368 69.105v-18.922c-0.03338-0.20831-0.23366-0.36456-0.60082-0.46875-0.28929-0.08331-0.484-0.20571-0.58414-0.36719-0.10014-0.16144-0.15021-0.50779-0.1502-1.0391-1e-6 -0.38539 0.07232-0.6406 0.21696-0.76563 0.14464-0.12497 0.51737-0.18747 1.1182-0.1875h7.9943c2.2809 2.6e-5 4.1696 0.9844 5.6661 2.9531 1.4965 1.9688 2.2447 5.2396 2.2447 9.8125-1.7e-5 4.1667-0.72323 7.2839-2.1696 9.3516-1.4464 2.0677-3.3602 3.1016-5.7412 3.1016h-8.8121c-0.24478 0-0.41446-0.05469-0.50903-0.16406-0.09458-0.10937-0.14186-0.35156-0.14186-0.72656-1e-6 -0.44792 0.01669-0.72916 0.05007-0.84375 0.03338-0.11458 0.19471-0.24479 0.484-0.39062 0.62308-0.30208 0.93462-0.75 0.93462-1.3438zm6.2085-19.891v21.641h0.88455c0.62307 2e-6 1.0792-0.24219 1.3685-0.72656 0.28928-0.48437 0.43392-1.3464 0.43393-2.5859v-15.969c-1.1e-5 -0.69789-0.17803-1.2656-0.53407-1.7031-0.35605-0.43748-0.8623-0.65623-1.5188-0.65625z"/>
<path d="m67.236 49.277v8.9219h1.1349c0.31153 1.4e-5 0.53962-0.06249 0.68427-0.1875 0.14463-0.12499 0.2559-0.39582 0.33379-0.8125 0.13351-0.73957 0.24199-1.1823 0.32545-1.3281 0.08343-0.14582 0.21417-0.21873 0.3922-0.21875 0.87897 1.7e-5 1.3769 0.03388 1.4937 0.10156 0.11682 0.06772 0.17523 0.33075 0.17524 0.78906v5.2031c-1.3e-5 0.32293-0.05564 0.53386-0.1669 0.63281-0.11128 0.09897-0.45619 0.14845-1.0348 0.14844-0.37831 1e-5 -0.63143-0.0651-0.75938-0.19531-0.12796-0.1302-0.25314-0.49738-0.37552-1.1016-0.1224-0.55207-0.24201-0.89061-0.35883-1.0156-0.11684-0.12499-0.29764-0.18749-0.54241-0.1875h-1.3018v10.766h0.88455c0.54518 2e-6 0.9207-0.14323 1.1265-0.42969 0.20583-0.28646 0.53684-1.112 0.99303-2.4766 0.18914-0.57291 0.38385-0.94791 0.58414-1.125 0.20026-0.17708 0.55074-0.26562 1.0514-0.26562 0.68982 6e-6 1.0347 0.20834 1.0348 0.625-1.3e-5 0.125-0.02226 0.3073-0.06675 0.54687l-0.61751 3.5469c-0.11128 0.64583-0.20307 1.0339-0.27538 1.1641-0.07234 0.13021-0.29764 0.19531-0.67593 0.19531h-11.132c-0.27816 0-0.45618-0.05989-0.53407-0.17969-0.07789-0.11979-0.11683-0.46614-0.11683-1.0391 0-0.36458 0.20027-0.63021 0.60082-0.79688 0.61195-0.23958 0.91792-0.5677 0.91793-0.98437v-19.484c-0.01113-0.1979-0.26147-0.39581-0.75103-0.59375-0.33379-0.13539-0.53128-0.2656-0.59248-0.39062-0.06119-0.12498-0.0918-0.42706-0.0918-0.90625 0-0.40622 0.03338-0.64841 0.10014-0.72656 0.06675-0.0781 0.26147-0.11716 0.58414-0.11719h10.648c0.26702 2.6e-5 0.46173 0.04169 0.58414 0.125 0.12238 0.08336 0.21695 0.28128 0.28372 0.59375l0.85117 4.0312c0.04449 0.20835 0.06674 0.34898 0.06675 0.42188-1.3e-5 0.28127-0.26705 0.42189-0.8011 0.42188-0.60084 1.9e-5 -1.0014-0.06509-1.2016-0.19531-0.20029-0.13019-0.395-0.45571-0.58414-0.97656-0.34493-0.93748-0.64256-1.5885-0.89289-1.9531-0.25035-0.36456-0.53129-0.54685-0.84282-0.54688z"/>
<path d="m81.522 61.48v7.75c-8e-6 0.36459 0.02502 0.60938 0.0751 0.73438 0.05006 0.125 0.19192 0.25521 0.42558 0.39062 0.3004 0.17708 0.45061 0.47396 0.45062 0.89062-9e-6 0.60417-0.05842 0.97656-0.17524 1.1172-0.11684 0.14062-0.33102 0.21094-0.64255 0.21094h-7.0597c-0.40055 0-0.60082-0.27083-0.60082-0.8125-1e-6 -0.52083 0.01669-0.85677 0.05007-1.0078 0.03338-0.15104 0.14464-0.25781 0.33379-0.32031 0.61195-0.22916 0.91792-0.67708 0.91793-1.3438v-18.297c-2e-6 -0.67706-0.26704-1.0885-0.8011-1.2344-0.26703-0.08331-0.43393-0.16664-0.50069-0.25-0.06676-0.08331-0.10014-0.3281-0.10014-0.73438-1e-6 -0.81248 0.23365-1.2187 0.70096-1.2188h9.2293c1.8358 2.6e-5 3.4742 0.64586 4.9151 1.9375 1.4408 1.2917 2.1613 3.0261 2.1613 5.2031-1.7e-5 3.0938-1.6857 5.1146-5.0569 6.0625 3.082 0.63543 4.623 2.4636 4.623 5.4844v3.7188c-1.8e-5 0.3125 0.12794 0.54688 0.38386 0.70312 0.3004 0.1875 0.4506 0.47396 0.45062 0.85938-1.9e-5 0.60417-0.03896 0.96354-0.11683 1.0781-0.07791 0.11458-0.28374 0.17188-0.61751 0.17188h-4.4728c-0.53408 0-0.97357-0.28385-1.3185-0.85156-0.34493-0.56771-0.51739-1.2682-0.51738-2.1016v-6.2969c-1.2e-5 -1.2292-0.66203-1.8437-1.9861-1.8438zm0-12.344v10.531h1.0848c1.1015 1.2e-5 1.6523-1.0364 1.6523-3.1094v-5.0312c-1.2e-5 -0.87498-0.17525-1.4922-0.52572-1.8516-0.35049-0.35935-0.89846-0.53904-1.6439-0.53906z"/>
<path d="m111.76 46.933h0.86786c0.20026 2.7e-5 0.35047 0.07034 0.45062 0.21094 0.10014 0.14065 0.17245 0.51825 0.21696 1.1328l0.38386 5.0312c0.0111 0.10418 0.0166 0.20314 0.0166 0.29688-2e-5 0.3646-0.0668 0.61981-0.20028 0.76562-0.13353 0.14585-0.40055 0.21877-0.8011 0.21875-0.48957 1.9e-5 -0.82892-0.11977-1.0181-0.35938-0.18916-0.23956-0.37275-0.80727-0.55076-1.7031-0.45619-2.2708-1.1071-3.4062-1.9527-3.4062-0.70098 2.3e-5 -1.0515 0.81773-1.0514 2.4531v17.578c-1e-5 1.1667 0.36716 1.75 1.1015 1.75 0.93461 2e-6 1.4576-0.97396 1.5688-2.9219 0.0334-0.5625 0.1502-0.95312 0.35048-1.1719 0.20026-0.21874 0.61194-0.32812 1.235-0.32812 0.4673 6e-6 0.79274 0.08074 0.97634 0.24219 0.18357 0.16146 0.27537 0.47657 0.27538 0.94531-1e-5 1.4896-0.47845 2.7266-1.4353 3.7109-0.95688 0.98438-2.1474 1.4766-3.5716 1.4766-1.3797-1e-6 -2.5924-0.41146-3.6383-1.2344-1.0459-0.82292-1.9499-2.2422-2.7121-4.2578-0.76216-2.0156-1.1432-4.5963-1.1432-7.7422 0-2.9687 0.31988-5.3411 0.95965-7.1172 0.63976-1.776 1.4576-3.1484 2.4534-4.1172 0.99582-0.96872 2.1557-1.4531 3.4798-1.4531 0.80109 2.7e-5 1.4965 0.20315 2.0862 0.60938 0.22252 0.14586 0.38941 0.21878 0.50069 0.21875 0.13351 2.4e-5 0.32265-0.14581 0.56744-0.4375 0.2114-0.26039 0.40611-0.3906 0.58414-0.39062z"/>
<path d="m123.31 46.933c1.6356 2.7e-5 3.0514 0.51305 4.2475 1.5391 1.1961 1.0261 2.1724 2.487 2.929 4.3828 0.75658 1.8959 1.1349 4.3281 1.1349 7.2969-2e-5 3.5625-0.73714 6.5703-2.2114 9.0234-1.4743 2.4531-3.5521 3.6797-6.2336 3.6797-2.548-1e-6 -4.5563-1.1979-6.025-3.5938-1.4687-2.3958-2.203-5.4896-2.203-9.2812 0-3.8854 0.75381-7.0312 2.2614-9.4375 1.5076-2.4062 3.541-3.6093 6.1-3.6094zm1.3185 3.7031c-1e-5 -1.3021-0.45063-1.9531-1.3519-1.9531-0.3783 2.5e-5 -0.70097 0.16148-0.968 0.48438-0.26704 0.32294-0.40055 0.71877-0.40054 1.1875v18.859c-1e-5 0.63542 0.1335 1.1172 0.40054 1.4453 0.26703 0.32813 0.58413 0.49219 0.95131 0.49219 0.41167 2e-6 0.74268-0.18229 0.99304-0.54688 0.25032-0.36458 0.3755-0.77083 0.37551-1.2188z"/>
<path d="m137.17 58.277v11.031c-1e-5 0.45834 0.27816 0.80209 0.83449 1.0312 0.4673 0.19792 0.70095 0.47917 0.70095 0.84375 0 0.76042-0.0194 1.1823-0.0584 1.2656-0.039 0.08334-0.20306 0.125-0.49234 0.125h-4.4394c-0.22254 0-0.36162-0.08073-0.41725-0.24219-0.0556-0.16146-0.0834-0.5599-0.0834-1.1953 0-0.29166 0.15021-0.49479 0.45061-0.60938 0.57857-0.23958 0.86786-0.51041 0.86786-0.8125v-18.469c0-0.44789-0.0445-0.78383-0.13351-1.0078-0.089-0.22394-0.28929-0.40883-0.60083-0.55469-0.27815-0.12498-0.46453-0.26039-0.5591-0.40625-0.0946-0.14581-0.14186-0.42185-0.14186-0.82813 0-0.72914 0.20584-1.0937 0.61752-1.0938h4.6397l5.6077 12.172v-8.9688c-1e-5 -0.49998-0.27261-0.85414-0.81779-1.0625-0.32268-0.13539-0.5313-0.28904-0.62586-0.46094-0.0946-0.17185-0.14187-0.50779-0.14186-1.0078-1e-5 -0.31247 0.0334-0.50258 0.10014-0.57031 0.0668-0.06768 0.19471-0.10154 0.38386-0.10156h4.6063c0.25589 0.03127 0.38384 0.37502 0.38386 1.0312-2e-5 0.38544-0.025 0.63023-0.0751 0.73438-0.0501 0.10419-0.16413 0.19273-0.34213 0.26562-0.38944 0.14586-0.63422 0.28648-0.73435 0.42188-0.10015 0.13544-0.15022 0.32294-0.1502 0.5625v22.203h-2.8372z"/>
<path d="m156.52 48.027c0.0668-0.05206 0.2559-0.28643 0.56745-0.70312 0.20026-0.27081 0.4673-0.40622 0.8011-0.40625 0.0779 2.5e-5 0.38941 0.03649 0.93462 0.10937 0.11125 0.10419 0.19469 0.32294 0.25034 0.65625l0.90123 5.2969c0.0444 0.28127 0.0668 0.44794 0.0668 0.5-1e-5 0.19794-0.0584 0.32814-0.17524 0.39062-0.11684 0.06252-0.4256 0.09377-0.92628 0.09375-0.56745 1.9e-5 -0.93462-0.06769-1.1015-0.20312-0.1669-0.1354-0.484-0.6979-0.9513-1.6875-0.99027-2.0937-1.8748-3.1406-2.6536-3.1406-0.55633 2.4e-5 -0.83449 0.36461-0.83447 1.0938-2e-5 0.90627 0.84003 2.6875 2.5201 5.3438 1.9249 3.0625 3.1794 5.2787 3.7635 6.6484 0.58413 1.3698 0.8762 2.9037 0.87621 4.6016-1e-5 2.0104-0.50626 3.5521-1.5188 4.625-1.0125 1.0729-2.153 1.6094-3.4214 1.6094-0.80112-1e-6 -1.5744-0.21354-2.3198-0.64062-0.2893-0.16667-0.51738-0.25-0.68427-0.25-0.14465 1e-6 -0.26148 0.09896-0.35049 0.29688-0.17803 0.39583-0.61196 0.59375-1.3018 0.59375-0.26704-1e-6 -0.44784-0.03906-0.5424-0.11719-0.0946-0.07812-0.16412-0.28386-0.20863-0.61719l-0.83448-5.2031c-0.11126-0.66666-0.16689-1.0208-0.16689-1.0625 0-0.30208 0.29485-0.45312 0.88455-0.45312 0.8011 7e-6 1.274 0.09897 1.4186 0.29688 0.14463 0.19792 0.35048 0.65105 0.61751 1.3594 0.97912 2.5313 1.9638 3.7969 2.9541 3.7969 0.36717 2e-6 0.66479-0.125 0.89289-0.375 0.22808-0.25 0.34213-0.5625 0.34214-0.9375-1e-5 -0.65625-0.25314-1.4349-0.75938-2.3359-0.50626-0.90104-1.1266-1.9036-1.8609-3.0078-1.758-2.6458-3.0013-4.7578-3.7301-6.3359-0.72879-1.5781-1.0932-3.1901-1.0932-4.8359 0-1.8541 0.43393-3.3333 1.3018-4.4375 0.86786-1.1041 1.9304-1.6562 3.1877-1.6563 0.86786 2.7e-5 1.9193 0.36461 3.1543 1.0938z"/>
<path d="m165.99 49.105h-0.75103c-0.24479 2.4e-5 -0.44506 0.15367-0.60082 0.46094-0.15578 0.30731-0.31711 1.138-0.484 2.4922-0.0779 0.59377-0.20029 0.96617-0.36718 1.1172-0.1669 0.15106-0.50069 0.22658-1.0014 0.22656-0.47843 1.9e-5 -0.78719-0.05467-0.92627-0.16406-0.13908-0.10936-0.20862-0.3255-0.20862-0.64844 0-0.18748 5e-3 -0.37498 0.0167-0.5625l0.20027-3.6406c0.0222-0.42706 0.10015-0.7057 0.23366-0.83594 0.13352-0.13018 0.46731-0.19529 1.0014-0.19531h12.233c0.35602 2.6e-5 0.57298 0.04169 0.65089 0.125 0.0778 0.08336 0.13907 0.38544 0.18358 0.90625l0.28373 3.2188c0.0222 0.25002 0.0334 0.50523 0.0334 0.76563-1e-5 0.31252-0.0418 0.5521-0.12517 0.71875-0.0835 0.16669-0.34771 0.25002-0.79275 0.25-0.56746 1.9e-5 -0.93185-0.05207-1.0932-0.15625-0.16135-0.10415-0.29207-0.43227-0.3922-0.98438-0.17804-0.90623-0.37274-1.6484-0.58414-2.2266-0.21141-0.5781-0.47288-0.86716-0.78441-0.86719h-0.50069v20.063c-1e-5 0.57292 0.26703 0.96875 0.8011 1.1875 0.22252 0.09375 0.36995 0.20573 0.44228 0.33594 0.0724 0.13021 0.10847 0.40365 0.10848 0.82031-1e-5 0.53125-0.0501 0.84115-0.1502 0.92969-0.10015 0.08854-0.32824 0.13281-0.68428 0.13281h-7.3434c-0.28929 0-0.47566-0.05209-0.55911-0.15625-0.0834-0.10417-0.12517-0.40104-0.12517-0.89062 0-0.58333 0.17246-0.9375 0.51738-1.0625 0.33379-0.125 0.54519-0.24739 0.63421-0.36719 0.089-0.11979 0.13351-0.32552 0.13352-0.61719z"/>
<path d="m185.26 61.48v7.75c-1e-5 0.36459 0.025 0.60938 0.0751 0.73438 0.05 0.125 0.19193 0.25521 0.42559 0.39062 0.30041 0.17708 0.45061 0.47396 0.45062 0.89062-1e-5 0.60417-0.0584 0.97656-0.17524 1.1172-0.11684 0.14062-0.33102 0.21094-0.64255 0.21094h-7.0597c-0.40055 0-0.60083-0.27083-0.60083-0.8125 0-0.52083 0.0166-0.85677 0.0501-1.0078 0.0334-0.15104 0.14464-0.25781 0.33379-0.32031 0.61195-0.22916 0.91793-0.67708 0.91793-1.3438v-18.297c0-0.67706-0.26704-1.0885-0.80111-1.2344-0.26703-0.08331-0.43392-0.16664-0.50069-0.25-0.0668-0.08331-0.10014-0.3281-0.10014-0.73438 0-0.81248 0.23365-1.2187 0.70096-1.2188h9.2293c1.8358 2.6e-5 3.4742 0.64586 4.9151 1.9375 1.4408 1.2917 2.1613 3.0261 2.1613 5.2031-1e-5 3.0938-1.6857 5.1146-5.057 6.0625 3.082 0.63543 4.623 2.4636 4.623 5.4844v3.7188c-1e-5 0.3125 0.12794 0.54688 0.38386 0.70312 0.30039 0.1875 0.4506 0.47396 0.45062 0.85938-2e-5 0.60417-0.039 0.96354-0.11683 1.0781-0.0779 0.11458-0.28373 0.17188-0.61752 0.17188h-4.4728c-0.53407 0-0.97357-0.28385-1.3185-0.85156-0.34494-0.56771-0.5174-1.2682-0.51739-2.1016v-6.2969c-1e-5 -1.2292-0.66202-1.8437-1.986-1.8438zm0-12.344v10.531h1.0848c1.1015 1.2e-5 1.6522-1.0364 1.6523-3.1094v-5.0312c-1e-5 -0.87498-0.17525-1.4922-0.52572-1.8516-0.35048-0.35935-0.89846-0.53904-1.6439-0.53906z"/>
<path d="m196.73 47.355h7.2266c0.24478 2.6e-5 0.40055 0.0495 0.46731 0.14844 0.0668 0.09898 0.10015 0.40367 0.10015 0.91406-1e-5 0.51044-0.16134 0.84898-0.484 1.0156-0.24479 0.12502-0.4089 0.25523-0.49234 0.39063-0.0835 0.13544-0.12518 0.39586-0.12517 0.78125v17.5c-1e-5 0.47917 0.14463 0.86719 0.43393 1.1641 0.28928 0.29688 0.65645 0.44531 1.1015 0.44531 0.41166 3e-6 0.76215-0.16666 1.0514-0.5 0.28927-0.33333 0.43391-0.70312 0.43392-1.1094v-17.5c-1e-5 -0.30206-0.0306-0.513-0.0918-0.63281-0.0612-0.11977-0.2142-0.26821-0.45896-0.44531-0.37831-0.27081-0.56746-0.68748-0.56745-1.25-1e-5 -0.43748 0.0528-0.7005 0.15855-0.78906 0.10569-0.08852 0.25868-0.13279 0.45896-0.13281h3.605c0.40054 2.6e-5 0.60081 0.18752 0.60082 0.5625v0.75c-1e-5 0.33336-0.0222 0.54429-0.0668 0.63281-0.0445 0.08856-0.17247 0.16929-0.38386 0.24219-0.52295 0.16669-0.78442 0.50523-0.78441 1.0156v17.047c-1e-5 1.6146-0.49513 2.8932-1.4854 3.8359-0.99026 0.94271-2.3699 1.4141-4.139 1.4141-1.9805-1e-6 -3.4909-0.5-4.5312-1.5-1.0403-1-1.5605-2.4427-1.5605-4.3281v-16.469c0-0.43748-0.24479-0.76039-0.73434-0.96875-0.24479-0.10414-0.39221-0.2005-0.44228-0.28906-0.0501-0.08851-0.0751-0.27862-0.0751-0.57031 0-0.60414 0.039-0.98435 0.11682-1.1406 0.0779-0.15622 0.30041-0.23435 0.66759-0.23438z"/>
<path d="m222.12 46.933h0.86785c0.20026 2.7e-5 0.35047 0.07034 0.45062 0.21094 0.10015 0.14065 0.17245 0.51825 0.21696 1.1328l0.38387 5.0312c0.0112 0.10418 0.0166 0.20314 0.0167 0.29688-2e-5 0.3646-0.0668 0.61981-0.20028 0.76562-0.13353 0.14585-0.40056 0.21877-0.8011 0.21875-0.48957 1.9e-5 -0.82893-0.11977-1.0181-0.35938-0.18915-0.23956-0.37274-0.80727-0.55075-1.7031-0.45619-2.2708-1.1071-3.4062-1.9527-3.4062-0.70097 2.3e-5 -1.0514 0.81773-1.0514 2.4531v17.578c-1e-5 1.1667 0.36716 1.75 1.1015 1.75 0.93461 2e-6 1.4576-0.97396 1.5688-2.9219 0.0334-0.5625 0.1502-0.95312 0.35048-1.1719 0.20026-0.21874 0.61194-0.32812 1.235-0.32812 0.4673 6e-6 0.79274 0.08074 0.97634 0.24219 0.18357 0.16146 0.27537 0.47657 0.27538 0.94531-1e-5 1.4896-0.47845 2.7266-1.4353 3.7109-0.95689 0.98438-2.1474 1.4766-3.5716 1.4766-1.3797-1e-6 -2.5925-0.41146-3.6383-1.2344-1.0459-0.82292-1.9499-2.2422-2.7121-4.2578-0.76216-2.0156-1.1432-4.5963-1.1432-7.7422 0-2.9687 0.31988-5.3411 0.95965-7.1172 0.63976-1.776 1.4576-3.1484 2.4534-4.1172 0.99581-0.96872 2.1557-1.4531 3.4798-1.4531 0.80109 2.7e-5 1.4965 0.20315 2.0862 0.60938 0.22253 0.14586 0.38942 0.21878 0.5007 0.21875 0.1335 2.4e-5 0.32265-0.14581 0.56744-0.4375 0.21139-0.26039 0.40611-0.3906 0.58414-0.39062z"/>
<path d="m229.34 49.105h-0.75103c-0.24479 2.4e-5 -0.44506 0.15367-0.60083 0.46094-0.15577 0.30731-0.3171 1.138-0.484 2.4922-0.0779 0.59377-0.20027 0.96617-0.36716 1.1172-0.16691 0.15106-0.5007 0.22658-1.0014 0.22656-0.47843 1.9e-5 -0.78719-0.05467-0.92627-0.16406-0.13908-0.10936-0.20862-0.3255-0.20861-0.64844-1e-5 -0.18748 5e-3 -0.37498 0.0166-0.5625l0.20028-3.6406c0.0222-0.42706 0.10015-0.7057 0.23366-0.83594 0.13351-0.13018 0.4673-0.19529 1.0014-0.19531h12.233c0.35603 2.6e-5 0.57299 0.04169 0.65089 0.125 0.0779 0.08336 0.13907 0.38544 0.18359 0.90625l0.28372 3.2188c0.0222 0.25002 0.0334 0.50523 0.0334 0.76563-2e-5 0.31252-0.0417 0.5521-0.12518 0.71875-0.0835 0.16669-0.34771 0.25002-0.79275 0.25-0.56745 1.9e-5 -0.93185-0.05207-1.0932-0.15625-0.16134-0.10415-0.29208-0.43227-0.3922-0.98438-0.17803-0.90623-0.37275-1.6484-0.58414-2.2266-0.21141-0.5781-0.47288-0.86716-0.78441-0.86719h-0.50068v20.063c-1e-5 0.57292 0.26702 0.96875 0.8011 1.1875 0.22251 0.09375 0.36993 0.20573 0.44227 0.33594 0.0723 0.13021 0.10847 0.40365 0.10849 0.82031-2e-5 0.53125-0.0501 0.84115-0.15021 0.92969-0.10015 0.08854-0.32825 0.13281-0.68428 0.13281h-7.3434c-0.28929 0-0.47565-0.05209-0.5591-0.15625-0.0834-0.10417-0.12518-0.40104-0.12518-0.89062 0-0.58333 0.17246-0.9375 0.51739-1.0625 0.33378-0.125 0.54518-0.24739 0.6342-0.36719 0.089-0.11979 0.13351-0.32552 0.13351-0.61719z"/>
<path d="m240.91 48.667v-0.82813c0-0.32289 0.18359-0.48435 0.55076-0.48438h7.9943c0.3004 2.6e-5 0.49511 0.03649 0.58413 0.10938 0.089 0.07295 0.13351 0.29169 0.13352 0.65625-1e-5 0.55211-0.0306 0.89586-0.0918 1.0313-0.0612 0.13544-0.1975 0.21877-0.40889 0.25-0.68985 0.11461-1.0348 0.52606-1.0348 1.2344v18.781c-1e-5 0.39584 0.25034 0.70834 0.75103 0.9375 0.32266 0.14584 0.51737 0.27604 0.58414 0.39062 0.0668 0.11458 0.10014 0.3125 0.10014 0.59375v0.60938c-1e-5 0.33333-0.0334 0.52083-0.10014 0.5625-0.0668 0.04166-0.23923 0.0625-0.51738 0.0625h-8.1445c-0.31154 0-0.46731-0.11458-0.46731-0.34375 0-0.75 0.0278-1.2083 0.0834-1.375 0.0556-0.16666 0.25035-0.29687 0.58414-0.39062 0.60082-0.15625 0.90123-0.45312 0.90123-0.89062v-18.547c0-0.43748-0.0556-0.76821-0.16689-0.99219-0.11126-0.22394-0.35605-0.40883-0.73434-0.55469-0.27816-0.11456-0.44784-0.21612-0.50904-0.30469-0.0612-0.08852-0.0918-0.25779-0.0918-0.50781z"/>
<path d="m259.7 46.933c1.6356 2.7e-5 3.0514 0.51305 4.2475 1.5391 1.1961 1.0261 2.1724 2.487 2.929 4.3828 0.75658 1.8959 1.1349 4.3281 1.1349 7.2969-2e-5 3.5625-0.73715 6.5703-2.2114 9.0234-1.4743 2.4531-3.5521 3.6797-6.2336 3.6797-2.5479-1e-6 -4.5563-1.1979-6.0249-3.5938-1.4687-2.3958-2.203-5.4896-2.203-9.2812-1e-5 -3.8854 0.75381-7.0312 2.2614-9.4375 1.5076-2.4062 3.541-3.6093 6.1-3.6094zm1.3185 3.7031c-1e-5 -1.3021-0.45063-1.9531-1.3519-1.9531-0.37831 2.5e-5 -0.70097 0.16148-0.968 0.48438-0.26704 0.32294-0.40056 0.71877-0.40055 1.1875v18.859c-1e-5 0.63542 0.13351 1.1172 0.40055 1.4453 0.26703 0.32813 0.58413 0.49219 0.95131 0.49219 0.41167 2e-6 0.74268-0.18229 0.99302-0.54688 0.25034-0.36458 0.37552-0.77083 0.37553-1.2188z"/>
<path d="m273.55 58.277v11.031c-1e-5 0.45834 0.27815 0.80209 0.83447 1.0312 0.46731 0.19792 0.70097 0.47917 0.70097 0.84375 0 0.76042-0.0194 1.1823-0.0584 1.2656-0.039 0.08334-0.20307 0.125-0.49234 0.125h-4.4394c-0.22252 0-0.3616-0.08073-0.41723-0.24219-0.0556-0.16146-0.0834-0.5599-0.0834-1.1953 0-0.29166 0.1502-0.49479 0.45062-0.60938 0.57857-0.23958 0.86786-0.51041 0.86786-0.8125v-18.469c0-0.44789-0.0446-0.78383-0.13352-1.0078-0.089-0.22394-0.28929-0.40883-0.60082-0.55469-0.27817-0.12498-0.46453-0.26039-0.55911-0.40625-0.0946-0.14581-0.14185-0.42185-0.14185-0.82813 0-0.72914 0.20583-1.0937 0.6175-1.0938h4.6397l5.6077 12.172v-8.9688c-1e-5 -0.49998-0.2726-0.85414-0.81778-1.0625-0.32268-0.13539-0.53129-0.28904-0.62586-0.46094-0.0946-0.17185-0.14187-0.50779-0.14186-1.0078-1e-5 -0.31247 0.0334-0.50258 0.10015-0.57031 0.0668-0.06768 0.1947-0.10154 0.38386-0.10156h4.6063c0.25589 0.03127 0.38384 0.37502 0.38386 1.0312-2e-5 0.38544-0.025 0.63023-0.0751 0.73438-0.0501 0.10419-0.16413 0.19273-0.34214 0.26562-0.38944 0.14586-0.63422 0.28648-0.73434 0.42188-0.10015 0.13544-0.15022 0.32294-0.1502 0.5625v22.203h-2.8372z"/>
</svg>
